<?xml version="1.0" encoding="UTF-8"?>
<svg id="Layer_2" data-name="Layer 2" xmlns="http://www.w3.org/2000/svg" xmlns:xlink="http://www.w3.org/1999/xlink" viewBox="0 0 50.27 57">
  <defs>
    <style>
      .cls-1 {
        fill: none;
      }

      .cls-2 {
        fill: #8fccdb;
      }

      .cls-3 {
        fill: #1f9dbb;
      }

      .cls-4 {
        clip-path: url(#clippath);
      }
    </style>
    <clipPath id="clippath">
      <rect class="cls-1" x="6" width="40" height="40"/>
    </clipPath>
  </defs>
  <g id="Layer_1-2" data-name="Layer 1">
    <g>
      <g class="cls-4">
        <path class="cls-3" d="M23.98,11.36c-.74-.52-1.45-1.05-2.15-1.6l-.26-.21-.13-.1-.03-.03s-.02-.02-.03-.02l-.05-.03c-.14-.09-.29-.15-.45-.19-.15-.03-.31-.04-.46-.02-.14.02-.28.07-.41.14-.12.07-.23.16-.32.26l-.4.48-.43.51c-.14.17-.29.34-.43.51-.58.68-1.16,1.35-1.74,2.01-.29.33-.59.66-.88.99l-.11.12-.06.06h-.01s0,.02,0,.02h0s0,.02,0,.02c0,0-.01.02-.02.02,0,0-.01.02-.02.03,0,.02-.02.04-.03.05-.05.1-.07.21-.06.33,0,.11.05.22.11.31.02.03.04.05.07.08,0,0,.01.01.02.02l.02.02.12.11.48.45c.65.61,1.29,1.22,1.92,1.83.16.15.32.31.48.46l.02.02.03.02.05.05.1.11s.06.07.09.11c.03.04.06.08.09.11.06.08.11.16.16.24.02.04.05.08.07.13.02.04.04.09.06.13.33.71.38,1.51.16,2.26-.03.09-.06.18-.1.27-.04.09-.08.18-.12.26-.05.08-.1.17-.15.25-.05.08-.11.16-.17.24-.03.04-.06.08-.09.11l-.1.11c-.08.09-.1.11-.14.15l-.24.24-.94.93c-.32.31-.63.62-.95.93l-.89.86s-.08.1-.11.16c-.03.06-.05.13-.05.2,0,.07,0,.15.02.22.02.07.05.14.1.2h0s0,.02,0,.02c0,0,0,0,0,0h0s.06.07.06.07l.11.12.23.25.45.49c.3.33.6.65.89.99.3.33.59.66.88.99.29.33.59.67.88,1,.15.17.29.34.44.5l.37.43c.09.1.2.17.32.23.13.06.26.09.4.1.15.01.29,0,.43-.05h.05s.03-.03.05-.04l.05-.02s.03-.02.05-.03l.05-.03s.02,0,.03-.01l.02-.02.05-.03.03-.02s0,0,.01,0h.02c.35-.29.69-.57,1.04-.85.7-.55,1.41-1.1,2.14-1.62-.51.74-1.05,1.45-1.6,2.15-.27.35-.55.7-.83,1.05v.02s-.03.01-.03.02l-.04.04-.07.08-.04.04s-.03.02-.04.04l-.08.07s-.06.05-.08.07l-.09.06s-.06.04-.09.06l-.1.06c-.26.15-.55.25-.84.29-.62.09-1.26-.05-1.78-.41l-.05-.03s-.03-.02-.05-.04l-.09-.07-.05-.04-.04-.03-.06-.05-.26-.22c-.17-.14-.34-.29-.51-.43-.34-.29-.67-.58-1.01-.87-.34-.29-.67-.58-1-.88-.33-.3-.66-.59-.99-.88l-.49-.45-.25-.22-.12-.11-.06-.06-.04-.04-.05-.05c-.53-.53-.83-1.25-.86-1.99-.02-.38.04-.75.16-1.1.12-.36.31-.69.55-.98l.09-.11s.07-.08.08-.09l.11-.12.23-.24.46-.48c.3-.32.61-.64.92-.96l.93-.95.23-.24s.06-.06.09-.09c0,0,0-.01.02-.02,0,0,.01-.01.01-.02,0-.01.02-.02.02-.03,0-.01.01-.03.02-.04,0-.01,0-.03.02-.04,0-.01,0-.03.01-.04.02-.06.02-.11.02-.17,0-.06-.02-.11-.04-.16,0,0,0-.01,0-.02,0,0,0-.01-.01-.02,0-.01-.01-.03-.02-.04,0,0,0-.01-.01-.02,0,0,0-.01-.01-.02,0,0-.01,0-.02-.02h0s0-.01,0-.01h0s0,0,0,0c-.16-.16-.31-.31-.47-.47-.62-.63-1.24-1.27-1.85-1.91l-.46-.48-.11-.12-.04-.05-.05-.05-.09-.11c-.12-.14-.22-.3-.31-.46-.18-.33-.3-.68-.35-1.05-.05-.37-.03-.74.05-1.1.08-.36.23-.7.44-1,.05-.07.11-.15.16-.22.03-.03.06-.07.09-.1l.09-.1.05-.05.02-.02h.01s.06-.07.06-.07l.12-.11c.33-.3.65-.6.99-.89.66-.59,1.32-1.18,1.99-1.76.17-.15.34-.29.5-.44l.51-.43.26-.22.13-.11.07-.06.09-.07c.24-.19.52-.33.81-.42.29-.09.59-.12.89-.1.29.02.57.1.84.22.26.12.49.29.68.5l.07.08s.02.02.03.03l.03.03.1.13.21.26c.55.7,1.1,1.41,1.62,2.14Z"/>
        <path class="cls-3" d="M25.66,18.73c-.04.13-.08.26-.12.39-.04.13-.08.26-.11.39-.07.26-.14.52-.19.79-.06.26-.1.53-.14.79-.02.13-.03.26-.05.39-.02.13-.02.26-.03.39-.02.26-.02.52-.01.78,0,.25.03.5.07.75l.02.09s.01.06.02.09c.01.06.02.12.04.18l.05.18s.02.06.02.09l.03.09.03.09s.02.06.03.09c.02.06.04.12.06.17l.07.17c.02.06.05.11.07.17.1.22.22.44.35.64.13.21.27.41.42.61l.06.08.06.07.12.15c.08.1.17.2.25.3.09.1.17.2.26.29l.13.14s.09.09.13.14c.35.38.72.73,1.11,1.09.19.18.39.35.59.53l.61.53c.21.18.41.36.62.54l.6.53.15.12.07.06.03.03.03.02c.07.06.14.11.22.15.04.03.09.05.14.06,0,0,.02,0,.03,0,0,0,.02,0,.03,0h.01s0,0,.01,0c.01,0,.02,0,.03,0,.09,0,.19-.02.27-.05.08-.04.15-.09.21-.15l.54-.58.56-.59c.75-.79,1.5-1.58,2.26-2.36l.57-.59.29-.29.03-.03h0s.01-.03.02-.03c0,0,0-.01.01-.02,0,0,0-.01.02-.02.04-.06.06-.12.07-.19.01-.07,0-.14-.02-.21-.02-.07-.06-.13-.1-.18h0s-.25-.26-.25-.26l-.29-.29-1.15-1.16-1.15-1.17c-.05-.05-.08-.08-.17-.18-.04-.04-.08-.09-.12-.13-.04-.04-.07-.09-.11-.14-.04-.05-.07-.1-.1-.14-.03-.05-.06-.1-.09-.15-.06-.1-.11-.21-.16-.31-.01-.03-.02-.05-.03-.08l-.03-.08c-.02-.06-.04-.11-.06-.17,0-.03-.02-.06-.02-.08l-.02-.08c-.01-.06-.03-.11-.04-.17-.01-.06-.02-.11-.02-.17,0-.06-.02-.11-.02-.17,0-.12,0-.23,0-.35.02-.47.15-.92.36-1.33.06-.1.12-.2.18-.3.03-.05.07-.09.1-.14l.05-.07s.04-.04.06-.07c.04-.04.08-.08.12-.13l.03-.03h.01s0-.03,0-.03l.04-.04.15-.14c.39-.38.79-.75,1.18-1.12.4-.37.79-.75,1.19-1.12l.3-.28.15-.14.07-.07.02-.02.03-.03c.08-.07.15-.16.19-.26h0s0-.02,0-.02v-.02s.02-.03.02-.04c0-.01,0-.03,0-.04,0-.01,0-.03,0-.04,0-.03,0-.06.01-.09,0-.02,0-.03,0-.04,0-.01,0-.03,0-.04,0-.12-.04-.24-.09-.35,0-.01-.02-.03-.02-.04v-.02s-.02-.01-.03-.02c0-.01-.02-.03-.03-.04h0s0-.02,0-.02l-.03-.04-.27-.3-.55-.61c-.73-.81-1.45-1.64-2.16-2.46-.36-.41-.71-.83-1.06-1.25l-.07-.08-.02-.02s-.01-.01-.01-.02l-.02-.03-.05-.06h-.01s-.01-.03-.01-.03l-.03-.03s-.04-.04-.05-.05l-.06-.05s-.04-.03-.06-.05l-.07-.04-.03-.02s-.02-.01-.03-.02l-.07-.03s-.05-.02-.07-.03l-.07-.03-.08-.02s-.05-.01-.08-.02h-.08s-.03-.02-.04-.02h-.04c-.22-.02-.45,0-.66.09-.03.01-.05.02-.08.03s-.05.02-.08.04l-.08.04s-.05.03-.08.05l-.07.05-.04.03-.04.03-.16.13c-.43.34-.86.68-1.3,1.02.33-.44.67-.87,1-1.31l.13-.16.03-.04.04-.04.08-.09s.05-.06.08-.08l.09-.08s.06-.05.09-.07c.03-.02.06-.05.1-.07.27-.18.58-.29.91-.32h.06s.04-.01.06-.01h.12s.08,0,.12,0h.13s.12.03.12.03c.04,0,.08.01.12.02l.12.03s.04.01.06.02l.06.02.12.05s.08.04.12.05c.04.02.08.04.12.06l.11.07.06.03.03.02.03.02.1.08.05.04.04.03.08.07c.42.35.84.7,1.26,1.05.83.71,1.66,1.42,2.48,2.14l.61.54.31.27.04.03s.02.02.02.03l.03.03s.07.07.11.11c.02.02.04.04.05.06l.05.06s.07.08.1.12c.25.35.42.75.5,1.17.08.42.06.86-.06,1.27-.12.42-.33.81-.62,1.14l-.05.06-.02.02-.02.02-.07.08-.14.15-.28.3c-.37.4-.74.8-1.11,1.2-.37.4-.74.8-1.11,1.19l-.14.15-.04.04h0s0,.01,0,.01h0s-.01.03-.02.03c0,0,0,0-.01.01h0s-.01.03-.02.04h0s0,.01,0,.01h0s0,.03-.01.04c-.03.08-.04.16-.03.25,0,.02,0,.04,0,.06,0,.01,0,.02,0,.03,0,0,0,.02,0,.03,0,0,0,.02.01.03h0s0,.02,0,.03c0,0,0,.02.01.03,0,0,0,0,0,.01s0,0,0,.01c0,.02.02.03.03.05,0,0,.01.02.01.02,0,0,.01.01.02.02,0,0,.01.02.02.02,0,0,.01.01.02.02,0,0,.07.07.11.11l1.18,1.13,1.17,1.14.29.29.14.14.07.07.04.04.06.07c.33.35.58.76.73,1.22.15.45.19.94.12,1.41-.07.47-.24.93-.5,1.32-.03.05-.07.1-.1.15-.04.05-.07.1-.11.14-.04.04-.08.09-.12.13l-.06.07-.04.04-.29.29-.58.58c-.78.76-1.55,1.53-2.34,2.28l-.59.57-.61.58c-.17.16-.35.3-.55.41-.59.34-1.29.48-1.97.38-.06,0-.11-.02-.17-.03s-.12-.03-.17-.04c-.06-.01-.11-.03-.17-.05-.06-.02-.11-.04-.17-.06-.2-.08-.4-.19-.58-.32-.15-.11-.29-.22-.43-.35l-.05-.04-.04-.04s-.06-.05-.08-.08l-.15-.15-.58-.6-.56-.59c-.38-.39-.76-.8-1.14-1.22-.19-.21-.37-.43-.56-.65-.09-.11-.18-.22-.27-.34l-.13-.17c-.04-.06-.09-.11-.13-.17-.17-.23-.33-.47-.49-.71-.08-.12-.15-.24-.23-.36-.04-.06-.08-.13-.11-.19l-.06-.1-.05-.1c-.15-.26-.28-.53-.4-.8-.12-.28-.22-.56-.3-.85-.08-.29-.14-.59-.18-.89v-.11s-.02-.07-.03-.11l-.02-.22c0-.07,0-.15,0-.22,0-.04,0-.07,0-.11v-.11c0-.08,0-.15,0-.22v-.22c.02-.07.03-.15.04-.22,0-.07.02-.15.03-.22.04-.28.1-.57.18-.84.07-.28.16-.55.26-.81.1-.26.2-.52.32-.78.24-.5.51-.98.82-1.44Z"/>
        <path class="cls-2" d="M23.1,26.15c-.09-.04-.17-.08-.25-.13-.08-.04-.17-.09-.25-.14-.04-.02-.08-.05-.12-.08-.04-.03-.08-.05-.12-.08l-.12-.08-.12-.08c-.32-.23-.62-.48-.89-.77-.14-.15-.27-.3-.39-.46-.06-.08-.12-.17-.18-.25-.03-.04-.05-.09-.08-.13-.03-.05-.05-.09-.08-.14-.21-.38-.36-.78-.45-1.2l-.03-.16c0-.05-.02-.11-.03-.16-.01-.11-.03-.22-.03-.33v-.17c0-.06,0-.11,0-.17,0-.06,0-.11,0-.17v-.17c.05-.44.15-.87.29-1.28.02-.05.03-.1.05-.15l.06-.15.06-.15s.04-.1.07-.14c.04-.09.09-.19.13-.28l.07-.14s.05-.09.08-.14l.08-.14.08-.13c.05-.09.11-.18.16-.26.11-.17.23-.34.34-.5.47-.64.95-1.21,1.36-1.76.05-.07.1-.14.15-.2l.13-.2s.05-.07.07-.1l.06-.1c.04-.07.09-.13.12-.2.08-.14.16-.28.23-.42l.05-.11.03-.05.02-.06.1-.22c.51-1.17.8-2.48.93-3.84v-.02c.03-.24.12-.47.26-.67.14-.19.34-.35.56-.44.22-.09.47-.13.71-.1.24.03.47.13.66.28l.07.05.06.05.11.09c.08.06.15.12.22.19.15.13.29.25.43.38.28.26.55.52.81.8.26.28.52.56.76.85.12.15.24.3.36.45.12.15.23.31.35.47.46.64.86,1.33,1.19,2.05.17.38.31.76.42,1.16.11.41.19.83.22,1.25.02.22.02.43.01.65,0,.11-.01.22-.02.33,0,.05-.01.11-.02.16l-.03.16v.04s-.01.04-.01.04l-.02.09c0,.06-.02.11-.04.16l-.09.29c-.03.1-.06.19-.09.28-.03.09-.06.19-.1.28-.28.72-.64,1.4-1.07,2.04-.43.62-.92,1.19-1.48,1.7-.56.5-1.16.92-1.82,1.24.46-.54.88-1.11,1.24-1.72.35-.59.65-1.2.9-1.84.23-.62.41-1.26.53-1.91.01-.08.03-.16.04-.24.01-.08.03-.16.03-.24l.03-.23s0-.07,0-.1v-.05s0-.02,0-.02v-.02c0-.14-.01-.28-.03-.41-.02-.14-.04-.28-.07-.41-.13-.55-.36-1.1-.67-1.63-.32-.55-.69-1.07-1.09-1.55-.1-.12-.21-.25-.32-.37-.11-.12-.22-.24-.33-.36s-.23-.24-.34-.36c-.12-.12-.23-.24-.35-.35-.24-.23-.48-.46-.73-.68-.12-.11-.25-.22-.37-.32-.06-.05-.12-.1-.19-.16l-.09-.07-.08-.06,2.18-.95c-.07.8-.21,1.6-.42,2.38-.05.2-.11.4-.17.59-.03.1-.07.2-.1.29l-.05.15-.06.15-.11.29-.12.29s-.04.1-.06.14l-.07.14c-.05.09-.09.19-.14.28l-.15.28-.04.07-.04.07-.08.14c-.06.09-.11.18-.17.27l-.18.26c-.06.09-.12.17-.19.26l-.09.13s-.07.08-.1.12l-.2.25c-.07.08-.13.15-.2.23-.54.59-1.08,1.1-1.56,1.59-.06.06-.12.12-.17.19-.06.06-.11.12-.17.19-.05.06-.11.12-.16.19l-.08.09-.07.09c-.05.06-.1.13-.15.19-.05.07-.09.13-.14.2-.02.03-.05.07-.07.1l-.06.1-.06.1s-.04.07-.06.1c-.31.54-.5,1.11-.52,1.73v.12s0,.08,0,.12c0,.08,0,.16.02.24v.12s.03.12.03.12v.06s.02.04.02.06l.03.12c.08.33.2.65.35.95.31.63.75,1.22,1.25,1.79Z"/>
      </g>
      <path class="cls-3" d="M49.8,54.48c-.86,1.63-2.23,2.48-4.08,2.51-1.36.02-2.71,0-4.07,0-.08,0-.16,0-.24-.02-.18-.04-.33-.14-.44-.28-.11-.14-.17-.31-.17-.49v-4.49h1.6v3.69h.08c1.09,0,2.18,0,3.27,0,.23,0,.45-.03.67-.07,1.88-.42,2.83-2.59,1.86-4.25-.56-.97-1.42-1.46-2.54-1.47-1.33-.01-3.62,0-4.95,0v-1.6h4.96c.19,0,.39.01.58.04.64.07,1.26.29,1.8.64,1.19.76,1.89,1.84,2.09,3.24.14.88-.01,1.78-.42,2.57Z"/>
      <path class="cls-3" d="M9.91,56.98h-2.19c-.98-1.07-2.29-2.48-2.67-2.89H1.6v2.88h-.63c-.11.03-.22.03-.33,0h-.65v-5.27h1.67v.78h4.71c.3,0,.59-.08.84-.24.25-.17.44-.4.54-.68.11-.28.12-.58.05-.87-.07-.29-.23-.55-.46-.74-.27-.23-.62-.36-.98-.35H.02v-1.6h6.35c.77-.01,1.51.27,2.08.79.63.57.98,1.28,1,2.13.03,1.17-.47,2.09-1.46,2.72-.26.17-.54.29-.84.36h.02c.11.12.21.24.31.35l2.42,2.63Z"/>
      <path class="cls-3" d="M24.22,56.99h-1.78c-.78-1.65-1.75-3.68-2.16-4.57-.31-.68-.61-1.35-.92-2.02-.24-.51-.65-.78-1.21-.78s-.96.27-1.2.78c-.14.3-.28.61-.42.92-.61,1.34-1.76,3.82-2.61,5.67h-1.76c.13-.28.25-.56.38-.83.68-1.49,2.24-4.87,2.92-6.36.38-.84,1-1.41,1.88-1.67,1.42-.41,2.84.26,3.47,1.62.76,1.65,2.34,4.97,3.41,7.25ZM18.17,54.47l1.18,2.52h-2.32l1.15-2.52Z"/>
      <path class="cls-3" d="M38.54,56.98h-1.78c-.78-1.65-1.75-3.68-2.16-4.57-.31-.68-.61-1.35-.92-2.02-.24-.51-.65-.77-1.21-.77s-.96.27-1.2.77c-.15.3-.28.61-.42.92-.61,1.34-1.76,3.82-2.61,5.67h-1.76c.13-.28.25-.56.38-.83.68-1.49,2.24-4.87,2.92-6.36.38-.84,1-1.41,1.88-1.67,1.42-.41,2.84.26,3.47,1.62.76,1.64,2.35,4.97,3.41,7.25ZM32.49,54.47l1.18,2.52h-2.32l1.14-2.52Z"/>
    </g>
  </g>
</svg>